<svg xmlns="http://www.w3.org/2000/svg" viewBox="0 0 114.22 38.61"><defs><style>.cls-1{fill:#fff;}</style></defs><title>Asset 1</title><g id="Layer_2" data-name="Layer 2"><g id="Layer_1-2" data-name="Layer 1"><path class="cls-1" d="M19.52,36.09h-.75v2.39h-1V32.42h2.32A1.79,1.79,0,0,1,22,34.26,1.71,1.71,0,0,1,20.59,36L22,38.48H20.8Zm.35-.91a.93.93,0,1,0,0-1.86h-1.1v1.86Z"/><path class="cls-1" d="M25.79,38.48V32.42h3.74v1H26.82V35h2.46v.93H26.82v1.61h2.72v1Z"/><path class="cls-1" d="M37.08,37H34.51l-.56,1.52H32.86l2.36-6.06h1.19l2.36,6.06H37.65ZM34.87,36h1.85l-.92-2.48Z"/><path class="cls-1" d="M42.32,38.48V32.42h1v5.09h2.78v1Z"/><path class="cls-1" d="M54.66,38.48V32.42h3.74v1H55.69V35h2.46v.93H55.69v1.61h2.72v1Z"/><path class="cls-1" d="M65.44,34.13a1.12,1.12,0,0,0-1.19-.93,1,1,0,0,0-1,.87.78.78,0,0,0,.71.78l.87.18a1.79,1.79,0,0,1,1.64,1.74,1.93,1.93,0,0,1-2.15,1.84,2.16,2.16,0,0,1-2.34-1.86l1-.27a1.3,1.3,0,0,0,1.39,1.21c.73,0,1.1-.37,1.1-.84s-.29-.71-.81-.82l-.85-.18a1.72,1.72,0,0,1-1.54-1.7,2.14,2.14,0,0,1,4.18-.31Z"/><path class="cls-1" d="M72.51,33.39v5.09h-1V33.39h-2v-1h5v1Z"/><path class="cls-1" d="M80.57,37H78l-.56,1.52H76.35l2.36-6.06H79.9l2.36,6.06H81.14ZM78.36,36h1.85l-.92-2.48Z"/><path class="cls-1" d="M87,33.39v5.09h-1V33.39H84v-1h5v1Z"/><path class="cls-1" d="M92.74,38.48V32.42h3.74v1H93.77V35h2.46v.93H93.77v1.61h2.72v1Z"/><path class="cls-1" d="M15.88,7.35a7,7,0,0,0-7-7H0V22.5H3.39V14.24H8.07l4.84,8.26h3.78l-5.16-8.76A7,7,0,0,0,15.88,7.35ZM3.39,3.61h5.5a3.68,3.68,0,0,1,3.59,3.75,3.69,3.69,0,0,1-3.59,3.78H3.39Z"/><rect class="cls-1" x="26.29" y="0.4" width="3.39" height="22.1"/><path class="cls-1" d="M75.16,3.3a7.3,7.3,0,0,1,6.58,3.77l.13.24,3-1.72-.13-.23A10.94,10.94,0,0,0,75.16,0,11.25,11.25,0,0,0,63.61,11.45,11.25,11.25,0,0,0,75.16,22.9a10.88,10.88,0,0,0,9.54-5.4l.13-.23-3-1.68-.13.24a7.41,7.41,0,0,1-6.58,3.74A7.89,7.89,0,0,1,67,11.45,7.9,7.9,0,0,1,75.16,3.3Z"/><path class="cls-1" d="M102.77,0A11.31,11.31,0,0,0,91.35,11.45a11.44,11.44,0,1,0,22.87,0A11.33,11.33,0,0,0,102.77,0Zm0,19.58a8,8,0,0,1-8.06-8.12,8.06,8.06,0,1,1,16.13,0A8,8,0,0,1,102.77,19.58Z"/><path class="cls-1" d="M49.23.4H40.63V22.5H44V14.8h5.22a7.05,7.05,0,0,0,7.23-7.2A7.06,7.06,0,0,0,49.23.4Zm0,11.19H44v-8h5.22a3.8,3.8,0,0,1,3.87,4A3.8,3.8,0,0,1,49.23,11.59Z"/></g></g></svg>